<svg width="256" height="256" viewBox="0 0 512 512" xmlns="http://www.w3.org/2000/svg" role="img" aria-label="Entigram">
  <rect width="512" height="512" rx="96" fill="#ffffff"/>
  <g transform="translate(40 94)">
    <path fill="#4285f4" d="M216 36c72 0 132 50 146 116 8 36 0 76-21 108-12 18-31 28-52 28H143c-21 0-40-10-52-28-21-32-29-72-21-108 14-66 74-116 146-116Z"/>
    <path fill="#34a853" d="M54 54c71 4 125 24 162 61-58 10-101 42-129 94C51 190 25 166 10 137 1 120 3 98 15 83c10-13 25-21 39-29Z"/>
    <path fill="#34a853" d="M378 54c-71 4-125 24-162 61 58 10 101 42 129 94 36-19 62-43 77-72 9-17 7-39-5-54-10-13-25-21-39-29Z"/>
    <circle fill="#fbbc04" cx="151" cy="177" r="48"/>
    <circle fill="#202124" cx="151" cy="177" r="20"/>
    <circle fill="#fbbc04" cx="281" cy="177" r="48"/>
    <circle fill="#202124" cx="281" cy="177" r="20"/>
    <path fill="#ea4335" d="M216 184c20 0 38 13 45 32l-45 84-45-84c7-19 25-32 45-32Z"/>
    <path fill="#ffffff" opacity=".9" d="M216 92c22 0 40 18 40 40h-80c0-22 18-40 40-40Z"/>
  </g>
</svg>
